<svg xmlns="http://www.w3.org/2000/svg" viewBox="0 0 970 180"><path class="st0" d="M266.1 54h14.2v92.3h-14.2V125h-27.8L195 81.8V54h14.2v21.9l35 35h21.9V54zm28.8-21.5h14.2V54h52.8l18.4 18.3v52.8h-85.4V32.5zM356 68.1h-46.9v42.7h57V78.2L356 68.1zm124 57h-85.3V54H480v27.8l-29.1 29H480v14.3zm-71-56.9v42.6h21.9l34.9-34.9v-7.7H409zM494.6 54h85.3v14.3h-71.1v56.8h-14.3V54zm149.6 14.1h-35.6v42.7h35.6v14.3h-49.8V32.6h14.2V54h35.6v14.1zm101.3 57h-85.3V54h85.3v27.8l-29.1 29h29.1v14.3zm-71.1-56.9v42.6h21.9l34.9-34.9v-7.7h-56.8zM838.2 54h7.2v14.3h-71.1v42.6h71.1v14.3H760V54h78.2zm35.9 0h52.7l18.3 18.4v52.7H931V78.2l-10.1-10H874V125h-14.2V32.6H874V54zM71 169.8l-56.3-56.7 20.6-77.3L23.4 39 2.8 116.4 59.1 173l11.9-3.2"/><path class="st0" d="M123.1 12.1L46.3 32.8l-20.6 77.4 56.2 56.6 76.8-20.7 20.6-77.4-56.2-56.6zm16.8 56.1H74.2v42.6h65.7v14.3H61V54h78.9v14.2z"/></svg>